<?xml version="1.0" encoding="utf-8"?>
<!-- Generator: Adobe Illustrator 19.2.1, SVG Export Plug-In . SVG Version: 6.00 Build 0)  -->
<svg version="1.1" xmlns="http://www.w3.org/2000/svg" xmlns:xlink="http://www.w3.org/1999/xlink" x="0px" y="0px"
	 viewBox="0 0 512 512" style="enable-background:new 0 0 512 512;" xml:space="preserve">
<style type="text/css">
	.st0{display:none;}
	.st1{display:inline;fill:none;stroke:#A01127;stroke-miterlimit:10;}
	.st2{fill:#1F3049;}
	.st3{fill:#E6CA56;}
	.st4{fill:#D5872A;}
	.st5{fill:#C9553E;}
	.st6{fill:#F5F5F5;}
	.st7{fill:#75A897;}
	.st8{fill:#FFFFFF;}
	.st9{fill:#E29E6F;}
	.st10{fill:#57646E;}
	.st11{fill:#8F9BA6;}
	.st12{fill:#F3F1E8;}
	.st13{fill:#E09E9A;}
	.st14{fill:#5E2D16;}
	.st15{fill:#32A57C;}
	.st16{fill:#858E96;}
	.st17{fill:#394755;}
	.st18{fill:#5082A9;}
	.st19{clip-path:url(#SVGID_2_);}
	.st20{clip-path:url(#SVGID_4_);fill:#E09E9A;}
	.st21{clip-path:url(#SVGID_4_);fill:#1F3049;}
	.st22{clip-path:url(#SVGID_4_);fill:#F5F5F5;}
	.st23{clip-path:url(#SVGID_4_);}
	.st24{fill:#9B6A57;}
	.st25{fill:#82492E;}
</style>
<g id="GUIDELINES" class="st0">
</g>
<g id="WORKSPACE" class="st0">
	<line id="XMLID_583_" class="st1" x1="486" y1="-4" x2="486" y2="516"/>
	<line id="XMLID_582_" class="st1" x1="-4" y1="26" x2="516" y2="26"/>
	<line id="XMLID_581_" class="st1" x1="-4" y1="486" x2="516" y2="486"/>
	<line id="XMLID_580_" class="st1" x1="26" y1="-4" x2="26" y2="516"/>
</g>
<g id="ICON">
</g>
<g id="Layer_6">
	<g>
		<circle class="st18" cx="256" cy="256" r="256"/>
		<g>
			<g>
				<g>
					<rect x="172" y="123" class="st18" width="205" height="122"/>
					<g>
						<rect x="187" y="138" class="st12" width="174" height="92"/>
						<g>
							<path class="st7" d="M273.8,132H180v104h93.8h0.7H368V132H273.8z M357,204c-12,0-21.5,9-21.6,21h-60.9h-0.7h-61
								c-0.1-12-9.8-21-21.8-21v-39.3c12,0,21.6-9.7,21.6-21.4c0-0.1,0.2-0.2,0.2-0.2h122.6c0,0,0.1,0.2,0.1,0.2
								c0,11.8,9.5,21.4,21.5,21.4V204z"/>
							<path class="st12" d="M184,136v96h180v-96H184z M361,229h-86.5h-0.7H187v-90h174V229z"/>
						</g>
						<g>
							<g>
								<g>
									<path class="st7" d="M311.2,184.7c-0.3,20.5-17.2,36.9-37.7,36.6c-20.5-0.3-36.9-17.2-36.6-37.7
										c0.3-20.5,17.2-36.9,37.7-36.6C295.2,147.4,311.5,164.2,311.2,184.7z"/>
								</g>
							</g>
							<g>
								<g>
									<g>
										<path class="st12" d="M253,199h6v-32h-6v-7h23.3c10.3,0,17.3,4.4,17.3,12.1c0,4.4-2.3,8.5-8.8,10.5
											c7.1,1.8,10.2,5.8,10.2,11.1c0,7.6-6.2,12.3-17.7,12.3H253V199z M275.7,180c5.8,0,9.2-2.5,9.2-6.6c0-4-3.4-6.4-8.6-6.4
											H268v13H275.7z M277.1,200c5.7,0,9.1-2.7,9.1-6.9c0-4-3.1-7.1-9.3-7.1H268v14H277.1z"/>
									</g>
								</g>
								<g>
									<g>
										<rect x="265" y="152" class="st12" width="7" height="13"/>
										<rect x="276" y="152" class="st12" width="7" height="13"/>
									</g>
									<g>
										<rect x="265" y="204" class="st12" width="7" height="12"/>
										<rect x="276" y="204" class="st12" width="7" height="12"/>
									</g>
								</g>
							</g>
						</g>
					</g>
				</g>
			</g>
			<g>
				<g>
					<g>
						<rect x="217" y="125" class="st12" width="174" height="93"/>
						<g>
							<path class="st7" d="M303.5,119H210v104h93.5h0.7H398V119H303.5z M386,191.1c-11,0-20.8,9.9-20.9,20.9h-60.9h-0.7h-61
								c-0.1-11-9.5-20.9-21.5-20.9v-39.3c12,0,21.4-9.7,21.4-21.5c0-0.1,0.1-0.3,0.1-0.3h122.6c0,0-0.2,0.2-0.2,0.3
								c0,11.8,10.1,21.5,21.1,21.5V191.1z"/>
							<path class="st12" d="M214,123v97h180v-97H214z M390,216h-85.8h-0.7H217v-90h173V216z"/>
						</g>
						<g>
							<g>
								<g>
									<path class="st7" d="M340.9,171.9c-0.3,20.5-17.2,36.9-37.7,36.6c-20.5-0.3-36.9-17.2-36.6-37.7
										c0.3-20.5,17.2-36.9,37.7-36.6C324.9,134.5,341.3,151.4,340.9,171.9z"/>
								</g>
							</g>
							<g>
								<g>
									<g>
										<path class="st12" d="M283,187h6v-33h-6v-7h23c10.3,0,17.3,4.5,17.3,12.2c0,4.4-2.3,8.6-8.8,10.6
											c7.1,1.8,10.2,6.2,10.2,11.5c0,7.6-6.2,12.7-17.7,12.7h-24V187z M305.4,167c5.8,0,9.2-2.5,9.2-6.6c0-4-3.4-6.4-8.6-6.4h-8
											v13H305.4z M306.8,187c5.7,0,9.1-2.7,9.1-6.9c0-4-3.1-7.1-9.3-7.1H298v14H306.8z"/>
									</g>
								</g>
								<g>
									<g>
										<rect x="295" y="139" class="st12" width="6" height="13"/>
										<rect x="306" y="139" class="st12" width="7" height="13"/>
									</g>
									<g>
										<rect x="295" y="191" class="st12" width="6" height="13"/>
										<rect x="306" y="191" class="st12" width="7" height="13"/>
									</g>
								</g>
							</g>
						</g>
					</g>
				</g>
			</g>
			<g>
				<path class="st14" d="M434,342.9c0,13.3-10.8,24.1-24.1,24.1H182.1c-13.3,0-24.1-10.8-24.1-24.1V186.1
					c0-13.3,10.8-24.1,24.1-24.1h227.8c13.3,0,24.1,10.8,24.1,24.1V342.9z"/>
				<g>
					<path class="st24" d="M396.4,360H394v-8h2.4c2.7,0,5.2-0.5,7.6-1.6l3.5,7.2C404,359.2,400.2,360,396.4,360z M382,360h-12v-8h12
						V360z M358,360h-12v-8h12V360z M334,360h-13v-8h13V360z M309,360h-12v-8h12V360z M285,360h-12v-8h12V360z M261,360h-12v-8h12
						V360z M237,360h-12v-8h12V360z M213,360h-12v-8h12V360z M187.8,359.6c-4.7-1-9-3.3-12.5-6.6l5.6-5.8c2.4,2.3,5.3,3.9,8.6,4.5
						L187.8,359.6z M418,348.3l-6.8-4.3c1.8-2.8,2.7-6,2.7-9.3l8-0.1v0.1C422,339.5,420.6,344.2,418,348.3z M168.5,340.8
						c-0.5-2-0.5-4-0.5-6.1V328h8v6.7c0,1.4,0.1,2.8,0.4,4.2L168.5,340.8z M422,323h-8v-13h8V323z M176,316h-8v-12h8V316z M422,298
						h-8v-12h8V298z M176,292h-8v-13h8V292z M422,274h-8v-12h8V274z M176,267h-8v-12h8V267z M422,250h-8v-12h8V250z M176,243h-8v-12
						h8V243z M422,226h-8v-12h8V226z M176,219h-8v-12h8V219z M422,202h-8v-7.1c0-1.4-0.2-2.9-0.6-4.2l7.8-1.9c0.5,2,0.8,4.1,0.8,6.1
						V202z M168,194.9L168,194.9c0-4.8,1.1-9.5,3.7-13.6l6.7,4.3c-1.7,2.8-2.5,6-2.5,9.3L168,194.9z M408.5,182.3
						c-2.4-2.3-5.4-3.9-8.6-4.5l1.6-7.8c4.7,1,9,3.3,12.5,6.6L408.5,182.3z M185.4,178.9l-3.5-7.3c3.5-1.7,7.2-2.6,11.1-2.6h2v8h-2
						C190.4,177,187.8,177.8,185.4,178.9z M389,177h-12v-8h12V177z M365,177h-13v-8h13V177z M340,177h-12v-8h12V177z M316,177h-12
						v-8h12V177z M292,177h-12v-8h12V177z M268,177h-12v-8h12V177z M244,177h-12v-8h12V177z M220,177h-12v-8h12V177z"/>
				</g>
				<path class="st25" d="M442,240h-67.5c-13.8,0-25,11.2-25,25c0,13.8,11.2,25,25,25H442V240z"/>
				<circle class="st2" cx="378" cy="264" r="11.5"/>
			</g>
		</g>
		<g>
			<g>
				<path class="st18" d="M260.4,311.6c-0.8,50.4-42.2,90.6-92.6,89.8c-50.3-0.8-90.5-42.2-89.8-92.6c0.8-50.4,42.2-90.6,92.6-89.8
					C220.9,219.8,261.1,261.2,260.4,311.6z"/>
			</g>
			<g>
				<path class="st3" d="M250,311.2c-0.7,44.2-37,79.5-81.2,78.8c-44.2-0.7-79.4-37-78.8-81.2c0.7-44.2,37-79.4,81.2-78.8
					C215.4,230.7,250.7,267,250,311.2z"/>
			</g>
			<g>
				<g>
					<path class="st4" d="M234,311c-0.5,35.9-30.1,64.6-66,64c-35.9-0.5-64.5-30.1-64-66c0.5-35.9,30.1-64.6,66-64
						C205.9,245.6,234.5,275.1,234,311z"/>
				</g>
			</g>
			<g>
				<g>
					<g>
						<path class="st3" d="M137,334h9v-51h-9v-10h35.6c16,0,26.9,6.7,26.9,18.7c0,6.9-3.6,13.2-13.7,16.3c11,2.7,15.8,9.4,15.8,17.6
							c0,11.8-9.6,19.5-27.5,19.5H137V334z M171.7,303c9,0,14.2-3.8,14.2-10.2c0-6.3-5.2-9.8-13.3-9.8H160v20H171.7z M173.8,334
							c8.8,0,14.1-3.7,14.1-10.4c0-6.3-4.9-10.6-14.5-10.6H160v21H173.8z"/>
					</g>
				</g>
				<g>
					<g>
						<rect x="156" y="260" class="st3" width="9" height="20"/>
						<rect x="173" y="260" class="st3" width="10" height="20"/>
					</g>
					<g>
						<rect x="156" y="340" class="st3" width="9" height="20"/>
						<rect x="173" y="340" class="st3" width="10" height="20"/>
					</g>
				</g>
			</g>
		</g>
	</g>
</g>
</svg>
