<svg version="1.1" id="Layer_1" xmlns="http://www.w3.org/2000/svg" xmlns:xlink="http://www.w3.org/1999/xlink" x="0px" y="0px"
	 width="100%" viewBox="0 0 1000 1000" enable-background="new 0 0 1000 1000" xml:space="preserve">
<path fill="#060202" opacity="1.000000" stroke="none" 
	d="
M1.000000,528.000000 
	C1.000000,509.979095 1.000000,491.958221 1.395147,473.288269 
	C3.336099,441.707703 7.946338,411.202362 15.377320,381.174011 
	C35.877377,298.333923 75.064354,225.422623 132.803070,162.597092 
	C189.363358,101.053802 257.197113,56.439758 336.063690,28.760263 
	C375.731842,14.838081 416.563019,6.142801 458.517242,2.864517 
	C464.026398,2.434031 469.506470,1.630663 475.000000,0.999999 
	C491.687561,1.000000 508.375122,1.000000 525.725464,1.389443 
	C555.500854,2.872684 584.183411,7.137208 612.548645,13.624306 
	C696.057678,32.722729 769.678528,71.039787 833.558838,127.997520 
	C896.045898,183.713043 941.640015,251.068542 970.434387,329.624573 
	C988.624023,379.248962 998.578613,430.589539 1000.055603,483.500977 
	C1000.088379,484.675171 1000.672913,485.833984 1001.000000,487.000000 
	C1001.000000,496.687561 1001.000000,506.375122 1000.600525,516.712646 
	C998.161926,538.184937 996.903564,559.119751 993.925903,579.807068 
	C987.080994,627.362732 972.657837,672.705444 951.879028,716.029419 
	C921.404846,779.568481 879.382568,834.290833 826.014343,880.233582 
	C788.285461,912.712830 746.505005,938.910339 700.871765,958.830078 
	C642.729187,984.210205 581.926392,997.996887 518.486450,1000.047913 
	C516.982239,1000.096558 515.495117,1000.670898 514.000000,1001.000000 
	C504.645782,1001.000000 495.291534,1001.000000 485.285217,1000.601440 
	C469.551147,999.103271 454.392334,998.626343 439.402954,996.776306 
	C406.729370,992.743713 374.644470,985.739624 343.399567,975.238220 
	C255.655487,945.747559 181.541550,895.911926 121.146904,825.772766 
	C79.373993,777.259949 48.204659,722.584595 27.538933,662.030701 
	C14.356007,623.402527 5.996317,583.690308 2.855278,542.931702 
	C2.470327,537.936462 1.629543,532.976379 1.000000,528.000000 
M300.253418,924.286926 
	C303.587494,925.800598 306.923767,927.309509 310.255310,928.828796 
	C364.170258,953.415039 420.853241,966.778442 479.916260,969.837341 
	C513.065796,971.554199 546.185486,970.087402 578.981812,964.686157 
	C612.873474,959.104492 645.872498,950.214172 677.880066,937.486572 
	C709.736816,924.819092 739.928528,909.160767 768.309387,889.987915 
	C819.235901,855.584229 862.078918,813.052368 896.554688,762.136353 
	C918.503540,729.720947 936.008484,695.073547 949.474854,658.303711 
	C962.240417,623.447449 970.564453,587.572144 974.776367,550.767822 
	C977.712891,525.108704 978.950928,499.317719 977.028687,473.500153 
	C975.856201,457.751373 974.956543,441.922791 972.589783,426.334198 
	C966.878296,388.715881 956.837830,352.234772 942.304321,316.980225 
	C921.283264,265.988678 892.252747,220.069611 855.377136,179.171875 
	C825.903687,146.483627 792.326050,118.484573 755.012817,95.156326 
	C727.432373,77.913010 698.251526,63.844627 667.677368,52.539196 
	C623.315918,36.135654 577.563843,26.663431 530.421570,24.242470 
	C499.624756,22.660919 468.848938,23.698338 438.237854,28.054657 
	C407.187836,32.473434 376.785553,39.605812 347.250183,50.099689 
	C302.282562,66.076637 260.538055,88.138962 222.191879,116.705803 
	C189.020004,141.417969 159.407928,169.756363 133.708206,202.090775 
	C102.312355,241.591827 77.726791,285.024139 60.163136,332.387543 
	C43.322041,377.802429 33.786991,424.755219 31.265211,473.054962 
	C29.472471,507.391357 31.425871,541.640015 37.178509,575.560059 
	C45.188381,622.789673 59.731483,667.994080 81.556053,710.659790 
	C109.518135,765.323914 146.387924,813.158691 192.823883,853.528809 
	C225.296005,881.759155 260.720184,905.443481 300.253418,924.286926 
z"/>
<path fill="#FFFFFF" opacity="1.000000" stroke="none" 
	d="
M1001.000000,486.531342 
	C1000.672913,485.833984 1000.088379,484.675171 1000.055603,483.500977 
	C998.578613,430.589539 988.624023,379.248962 970.434387,329.624573 
	C941.640015,251.068542 896.045898,183.713043 833.558838,127.997520 
	C769.678528,71.039787 696.057678,32.722729 612.548645,13.624306 
	C584.183411,7.137208 555.500854,2.872684 526.194153,1.389443 
	C684.261230,1.000000 842.522461,1.000000 1001.000000,1.000000 
	C1001.000000,162.687500 1001.000000,324.375092 1001.000000,486.531342 
z"/>
<path fill="#FFFFFF" opacity="1.000000" stroke="none" 
	d="
M1.000000,528.468628 
	C1.629543,532.976379 2.470327,537.936462 2.855278,542.931702 
	C5.996317,583.690308 14.356007,623.402527 27.538933,662.030701 
	C48.204659,722.584595 79.373993,777.259949 121.146904,825.772766 
	C181.541550,895.911926 255.655487,945.747559 343.399567,975.238220 
	C374.644470,985.739624 406.729370,992.743713 439.402954,996.776306 
	C454.392334,998.626343 469.551147,999.103271 484.816589,1000.601440 
	C323.740417,1001.000000 162.480850,1001.000000 1.000000,1001.000000 
	C1.000000,843.645813 1.000000,686.291565 1.000000,528.468628 
z"/>
<path fill="#FFFFFF" opacity="1.000000" stroke="none" 
	d="
M474.531342,0.999999 
	C469.506470,1.630663 464.026398,2.434031 458.517242,2.864517 
	C416.563019,6.142801 375.731842,14.838081 336.063690,28.760263 
	C257.197113,56.439758 189.363358,101.053802 132.803070,162.597092 
	C75.064354,225.422623 35.877377,298.333923 15.377320,381.174011 
	C7.946338,411.202362 3.336099,441.707703 1.395147,472.819611 
	C1.000000,315.739441 1.000000,158.478851 1.000000,1.000000 
	C158.687500,1.000000 316.375092,1.000000 474.531342,0.999999 
z"/>
<path fill="#FEFEFE" opacity="1.000000" stroke="none" 
	d="
M514.468628,1001.000000 
	C515.495117,1000.670898 516.982239,1000.096558 518.486450,1000.047913 
	C581.926392,997.996887 642.729187,984.210205 700.871765,958.830078 
	C746.505005,938.910339 788.285461,912.712830 826.014343,880.233582 
	C879.382568,834.290833 921.404846,779.568481 951.879028,716.029419 
	C972.657837,672.705444 987.080994,627.362732 993.925903,579.807068 
	C996.903564,559.119751 998.161926,538.184937 1000.600525,517.181274 
	C1001.000000,678.260620 1001.000000,839.521301 1001.000000,1001.000000 
	C838.979187,1001.000000 676.958252,1001.000000 514.468628,1001.000000 
M912.485474,967.111511 
	C912.200806,967.309448 912.007690,967.574158 911.283630,967.895386 
	C910.520630,967.592957 909.757568,967.290527 909.000793,967.002258 
	C909.000793,967.002258 909.015076,967.006165 908.877319,966.493896 
	C908.582214,966.323914 908.287048,966.153870 907.998718,966.002808 
	C907.998718,966.002808 908.018494,966.007019 907.591370,965.398132 
	C903.955261,963.865540 900.372498,963.263062 897.001099,966.002808 
	C897.001099,966.002808 897.007812,965.984192 896.509094,966.108215 
	C896.317810,966.381287 896.126526,966.654358 895.361023,967.150757 
	C894.238953,967.096558 893.116882,967.042297 891.998779,967.004639 
	C891.998779,967.004639 892.015442,967.009094 891.861694,966.507996 
	C891.571350,966.333496 891.281006,966.159058 890.997131,966.003357 
	C890.997131,966.003357 891.017029,966.004272 890.699097,965.422363 
	C888.792908,965.616760 886.886658,965.811096 885.003174,966.003174 
	C885.003174,966.003174 885.011353,965.981873 884.513550,966.143433 
	C884.337097,966.432190 884.160645,966.720886 884.002502,967.003540 
	C884.002502,967.003540 884.005127,966.984375 883.504761,966.947876 
	C883.340332,966.978821 883.175964,967.009705 882.286072,967.062805 
	C881.563782,966.996765 880.841553,966.930664 879.789978,966.367065 
	C879.419678,966.233276 879.049316,966.099548 878.438416,965.997131 
	C878.438416,965.997131 878.197998,966.029358 877.859863,965.396973 
	C876.236816,963.926758 874.613770,962.456543 873.000000,961.000610 
	C873.000000,961.000610 873.015137,961.008606 872.872681,960.591125 
	C872.576355,960.730713 872.279968,960.870239 871.998962,961.002258 
	C871.998962,961.002258 872.009094,960.988403 871.309875,961.060364 
	C870.554993,962.209961 869.800110,963.359558 869.044312,964.510437 
	C865.223022,961.688232 862.080505,962.382629 861.601013,966.129272 
	C860.680603,973.321045 864.755554,977.190979 871.995972,975.996277 
	C871.995972,975.996277 871.973694,975.982849 872.140076,976.359802 
	C872.436218,976.233765 872.732300,976.107666 873.004395,975.996399 
	C873.004395,975.996399 872.986206,976.018860 873.737976,975.863708 
	C874.401306,973.699158 875.064636,971.534668 875.727966,969.370178 
	C876.139709,969.330811 876.551453,969.291504 876.963196,969.252197 
	C877.095398,970.689453 877.160767,972.136841 877.374939,973.561829 
	C877.724792,975.890686 878.282166,977.964783 881.383728,976.110474 
	C882.179138,975.635010 883.142517,975.440308 884.148682,975.782043 
	C885.816467,977.519653 887.181091,977.688232 888.789856,975.009644 
	C890.394470,974.608398 891.999023,974.207153 893.198792,973.907166 
	C894.327332,974.529053 895.656433,975.261536 897.578857,975.558594 
	C898.009827,973.927795 898.440857,972.296936 898.865417,970.690430 
	C900.106689,972.669250 901.165771,974.357544 902.504333,976.028503 
	C902.504333,976.028503 902.783875,976.045471 903.559631,975.947937 
	C904.237854,973.986450 904.916077,972.024963 905.514526,970.294312 
	C906.274780,971.987671 907.180420,974.004761 908.500244,976.006836 
	C908.500244,976.006836 908.918518,976.005432 909.244629,976.399719 
	C910.487000,975.958862 911.729370,975.518005 913.171204,975.527344 
	C913.371765,975.804871 913.636780,975.990295 914.443542,976.159546 
	C914.443542,976.159546 914.918518,976.248901 915.479126,976.661804 
	C917.937012,975.840942 920.394897,975.020142 922.852783,974.199280 
	C922.727051,973.775696 922.601318,973.352051 922.475586,972.928467 
	C923.303162,973.637329 924.130737,974.346130 925.287415,975.565674 
	C925.859924,975.715820 926.432434,975.866028 927.001587,975.996094 
	C927.001587,975.996094 926.980774,975.995667 927.497803,976.610840 
	C930.340454,976.404602 933.183167,976.198364 936.006470,975.992981 
	C936.006470,975.992981 936.007263,976.011658 936.684448,976.046204 
	C937.917725,975.909363 939.461060,975.231750 940.330017,975.730103 
	C943.903809,977.780029 947.107178,977.661987 950.870972,975.092773 
	C952.919128,975.259827 955.025330,978.763794 957.502380,974.988281 
	C957.502380,974.988281 957.998230,975.027527 958.145874,975.748657 
	C959.468567,976.137817 960.791260,976.527039 962.504700,976.600037 
	C962.332947,976.058105 962.161133,975.516235 961.994507,974.997864 
	C961.994507,974.997864 962.017395,975.007996 962.110107,974.368286 
	C962.484741,973.762756 962.859314,973.157166 963.161377,972.668823 
	C964.129456,974.301086 964.945862,975.677551 966.197937,977.788757 
	C968.211670,973.809265 969.696716,970.874634 971.181763,967.939941 
	C974.214294,977.524231 975.860962,978.852783 980.889160,974.929260 
	C976.692627,972.157471 977.614075,969.227722 981.772522,965.981384 
	C978.660217,964.626099 976.025513,962.404663 973.746521,962.723816 
	C969.759460,963.282043 965.990967,965.400696 961.883972,966.449158 
	C961.677856,966.183777 961.412964,966.006287 960.745422,965.306519 
	C958.505310,963.376343 956.520874,963.567200 954.024170,966.003967 
	C952.723572,965.989624 951.422974,965.975281 949.565002,965.927979 
	C949.379089,965.919556 949.193176,965.911133 948.574524,965.371033 
	C946.736938,963.892273 944.899292,962.413513 942.641235,960.409912 
	C939.741760,964.199707 936.842285,967.989563 934.565125,970.965942 
	C933.805054,969.650757 932.738586,967.805542 931.503357,965.971497 
	C931.503357,965.971497 931.327393,965.960632 930.524231,966.000183 
	C929.751648,968.039917 928.979065,970.079651 927.983154,972.709045 
	C926.448853,969.539368 928.528320,961.756165 920.878174,966.460876 
	C920.675415,966.190918 920.411316,966.010986 919.738525,965.315857 
	C917.582336,963.451233 915.625183,963.404785 913.478638,966.120239 
	C913.305420,966.397827 913.132263,966.675476 912.485474,967.111511 
z"/>
<path fill="#D90101" opacity="1.000000" stroke="none" 
	d="
M299.912201,924.129333 
	C260.720184,905.443481 225.296005,881.759155 192.823883,853.528809 
	C146.387924,813.158691 109.518135,765.323914 81.556053,710.659790 
	C59.731483,667.994080 45.188381,622.789673 37.178509,575.560059 
	C31.425871,541.640015 29.472471,507.391357 31.265211,473.054962 
	C33.786991,424.755219 43.322041,377.802429 60.163136,332.387543 
	C77.726791,285.024139 102.312355,241.591827 133.708206,202.090775 
	C159.407928,169.756363 189.020004,141.417969 222.191879,116.705803 
	C260.538055,88.138962 302.282562,66.076637 347.250183,50.099689 
	C376.785553,39.605812 407.187836,32.473434 438.237854,28.054657 
	C468.848938,23.698338 499.624756,22.660919 530.421570,24.242470 
	C577.563843,26.663431 623.315918,36.135654 667.677368,52.539196 
	C698.251526,63.844627 727.432373,77.913010 755.012817,95.156326 
	C792.326050,118.484573 825.903687,146.483627 855.377136,179.171875 
	C892.252747,220.069611 921.283264,265.988678 942.304321,316.980225 
	C956.837830,352.234772 966.878296,388.715881 972.589783,426.334198 
	C974.956543,441.922791 975.856201,457.751373 977.028687,473.500153 
	C978.950928,499.317719 977.712891,525.108704 974.776367,550.767822 
	C970.564453,587.572144 962.240417,623.447449 949.474854,658.303711 
	C936.008484,695.073547 918.503540,729.720947 896.554688,762.136353 
	C862.078918,813.052368 819.235901,855.584229 768.309387,889.987915 
	C739.928528,909.160767 709.736816,924.819092 677.880066,937.486572 
	C645.872498,950.214172 612.873474,959.104492 578.981812,964.686157 
	C546.185486,970.087402 513.065796,971.554199 479.916260,969.837341 
	C420.853241,966.778442 364.170258,953.415039 310.255310,928.828796 
	C306.923767,927.309509 303.587494,925.800598 299.912201,924.129333 
M753.760254,160.284973 
	C751.903259,158.757126 750.093079,157.167816 748.181885,155.711044 
	C730.548462,142.269943 711.482910,131.183167 691.433594,121.821823 
	C680.920776,116.913208 670.324646,112.022385 659.379761,108.242157 
	C647.062195,103.987808 634.363525,100.781021 621.718933,97.556892 
	C616.793030,96.300880 611.562439,96.240158 606.470642,95.634987 
	C606.200134,96.420090 605.929565,97.205193 605.659058,97.990295 
	C607.903809,99.536270 610.135620,101.101425 612.395264,102.625259 
	C634.681152,117.653702 655.492432,134.510452 674.761536,153.242798 
	C689.300049,167.376358 703.362854,181.953247 715.161194,198.544800 
	C722.450562,208.795517 730.334595,218.669601 736.979309,229.319443 
	C743.525452,239.811478 749.327332,250.842789 754.577820,262.048798 
	C760.739624,275.199677 766.560730,288.577972 771.436279,302.247589 
	C778.503174,322.061554 780.629883,342.978546 781.791687,363.789337 
	C783.228333,389.520111 782.438171,415.361572 777.686218,440.745483 
	C774.994385,455.124847 770.366028,469.175354 766.097473,483.218170 
	C759.308167,505.554138 746.805481,524.534302 729.364136,539.813354 
	C717.145630,550.517029 702.480957,557.346802 686.522339,561.018738 
	C670.485352,564.708740 654.282166,565.151794 638.029724,562.987305 
	C619.047668,560.459290 601.649048,554.545288 586.639893,541.694275 
	C571.335938,528.590820 562.244934,512.068542 557.052795,493.241150 
	C554.078064,482.454224 551.954834,471.263550 551.029236,460.123291 
	C549.875610,446.238953 549.234558,432.123352 550.423584,418.283875 
	C551.720642,403.188080 554.725769,388.143524 558.203979,373.363159 
	C560.655273,362.946686 564.005554,352.404694 569.008850,343.013245 
	C574.932983,331.893341 582.559998,321.551178 590.395386,311.618561 
	C597.037048,303.199219 604.772339,295.580719 612.498962,288.098572 
	C618.678101,282.114899 625.429382,276.688965 632.188293,271.346313 
	C638.944702,266.005676 645.798645,260.722229 653.033630,256.073273 
	C659.285278,252.056183 659.927795,249.591614 654.641235,244.178787 
	C640.694092,229.898514 626.741089,215.623581 612.873047,201.266708 
	C609.054382,197.313385 607.092346,197.065079 602.848877,200.684555 
	C601.841003,201.544235 600.747009,202.304123 599.752136,203.177658 
	C588.450684,213.100571 575.268494,221.097000 567.545227,234.699234 
	C566.908875,235.819962 565.626160,236.573669 564.643738,237.497925 
	C564.228821,237.284683 563.813843,237.071442 563.398926,236.858215 
	C564.229187,232.336090 565.536255,227.841980 565.803894,223.286804 
	C566.767517,206.890381 573.896851,193.039612 583.020874,179.949966 
	C587.056030,174.161102 586.909607,172.759888 582.107788,167.646957 
	C573.929443,158.938690 565.933899,150.058395 557.737915,141.367020 
	C553.680115,137.063980 549.346741,133.020782 545.041382,128.155167 
	C544.535278,127.139595 544.230835,125.938660 543.493042,125.136078 
	C531.039368,111.588577 518.582214,98.043495 506.010529,84.605698 
	C501.194519,79.457878 500.043884,79.545090 495.099396,84.456543 
	C474.844116,104.576508 454.627136,124.735031 434.348389,144.831299 
	C426.349426,152.758316 418.243744,160.578094 410.148773,168.407562 
	C407.550049,170.921082 407.463928,173.146744 409.669159,176.215668 
	C419.451233,189.829025 428.733002,203.768967 430.787659,221.011124 
	C431.555176,227.451828 431.820007,233.952454 432.314056,240.425751 
	C431.724213,240.590607 431.134338,240.755463 430.544495,240.920319 
	C429.198730,238.971008 427.770294,237.072968 426.523499,235.062271 
	C423.385925,230.002289 420.526947,224.758804 417.200226,219.829193 
	C410.639404,210.107193 401.092651,203.693542 391.530182,197.338531 
	C388.700623,195.458069 386.475677,195.940659 384.065216,198.379150 
	C369.941254,212.667328 355.738251,226.878281 341.461151,241.013504 
	C338.295074,244.148132 338.184082,246.796097 341.396271,249.895874 
	C345.799408,254.144943 350.278168,258.356812 354.289124,262.963684 
	C368.113556,278.842285 381.664337,294.959076 395.480927,310.844574 
	C408.087250,325.338562 420.148773,340.242157 430.322906,356.562103 
	C443.432007,377.589874 447.249542,401.297852 448.822937,425.364441 
	C449.737335,439.350800 448.828491,453.329529 446.310852,467.342072 
	C443.173950,484.801117 438.391052,501.381866 429.673615,516.885376 
	C422.747070,529.203918 413.770172,539.571533 402.504517,548.019714 
	C393.528961,554.750488 383.619629,560.013367 372.848450,562.692932 
	C353.531525,567.498474 333.999420,568.630859 314.237091,564.156189 
	C298.343536,560.557434 283.806732,554.585571 270.951294,544.459717 
	C255.592133,532.361755 244.379395,517.004028 237.293045,499.092255 
	C231.981262,485.665955 228.300110,471.524658 224.771851,457.480865 
	C220.640961,441.038361 218.772766,424.113678 219.205460,407.207458 
	C219.692612,388.172546 220.804260,369.074463 223.142288,350.189331 
	C225.290909,332.833832 228.482941,315.476349 232.917603,298.566162 
	C239.352615,274.028198 250.637863,251.494156 264.709442,230.315887 
	C278.761841,209.166473 294.086792,189.075256 311.701599,170.767014 
	C316.277466,166.010986 320.880798,161.277328 325.594818,156.659302 
	C333.056915,149.349152 340.451660,141.955948 348.192566,134.948776 
	C356.147522,127.747841 364.353271,120.807137 372.691254,114.051208 
	C380.133148,108.021355 387.964447,102.474403 395.500641,96.557350 
	C398.247833,94.400414 400.639557,91.790756 403.193451,89.387634 
	C402.839325,88.955658 402.485199,88.523674 402.131073,88.091698 
	C388.327393,86.940758 375.149689,91.104828 362.317535,94.808113 
	C344.717407,99.887390 327.534943,106.694908 310.650085,113.881599 
	C297.409882,119.517014 284.505096,126.205643 272.163574,133.613052 
	C259.758148,141.058823 247.550232,149.157562 236.487961,158.438812 
	C221.167404,171.292740 206.781570,185.295151 192.393814,199.217453 
	C175.860809,215.215622 163.086838,234.348785 149.984756,253.051102 
	C141.667770,264.923065 134.841949,277.950012 128.344650,290.957153 
	C121.030754,305.599060 114.240044,320.568909 108.319778,335.822266 
	C101.994400,352.119385 96.037170,368.672760 91.581642,385.553070 
	C86.186348,405.993835 81.449974,426.739349 78.455261,447.643341 
	C75.854179,465.799683 75.574287,484.351105 75.226074,502.746033 
	C74.988037,515.320496 75.975517,527.966614 77.184189,540.506531 
	C78.405602,553.178833 79.931221,565.892395 82.496033,578.346375 
	C85.530502,593.080933 89.592461,607.620056 93.616592,622.130859 
	C100.465973,646.829407 110.273529,670.461853 122.045479,693.127747 
	C130.679855,709.752380 141.005890,725.511230 150.865585,741.478394 
	C153.671478,746.022461 157.484039,749.944824 160.931198,754.853638 
	C161.212387,755.621277 161.304565,756.550476 161.802475,757.132874 
	C174.056763,771.467590 185.820084,786.273865 198.806839,799.914551 
	C209.880630,811.545898 221.913101,822.388916 234.359421,832.554749 
	C247.283936,843.111145 260.802399,853.076050 274.830109,862.104858 
	C287.006256,869.941895 299.943512,876.791565 313.112000,882.842468 
	C329.678986,890.454895 346.450226,898.021484 363.821289,903.376221 
	C382.100494,909.010803 401.041351,912.989685 419.968842,915.897339 
	C440.224548,919.008972 460.767914,920.793884 481.250275,921.702026 
	C496.116882,922.361206 511.133636,921.162170 526.000671,919.851990 
	C540.809326,918.546936 555.555298,916.331177 570.255676,914.044739 
	C591.946472,910.671265 613.154663,905.240479 633.612305,897.219055 
	C649.739014,890.895874 666.036499,884.856995 681.646240,877.409363 
	C697.031677,870.068665 711.879395,861.502258 726.520691,852.734863 
	C736.440735,846.794678 745.893066,839.958435 755.021729,832.839600 
	C767.697449,822.954651 780.610779,813.183594 792.073914,801.983643 
	C805.825073,788.548279 818.702759,774.110413 830.942261,759.268433 
	C841.889648,745.993408 852.388123,732.152954 861.390320,717.519653 
	C872.108276,700.097046 881.169678,681.641174 890.635559,663.469788 
	C894.220947,656.587158 897.556641,649.449768 899.920471,642.080200 
	C905.739014,623.940247 910.988281,605.616028 916.354187,587.332947 
	C922.653992,565.868164 924.875610,543.689270 925.666260,521.546082 
	C926.363953,502.005157 925.724121,482.268738 923.714111,462.821320 
	C921.783081,444.139648 918.078552,425.545624 913.826050,407.221130 
	C906.711609,376.564758 895.586975,347.247192 881.191406,319.228516 
	C874.710449,306.614471 868.555908,293.779755 861.219666,281.671387 
	C851.790100,266.107880 842.012451,250.654541 831.091492,236.125778 
	C821.579956,223.471817 810.657593,211.796463 799.645020,200.376724 
	C789.655334,190.017548 778.849182,180.422974 768.102844,170.827362 
	C763.861084,167.039764 758.807190,164.161591 753.760254,160.284973 
z"/>
<path fill="#D5D5D5" opacity="1.000000" stroke="none" 
	d="
M962.130920,966.865601 
	C965.990967,965.400696 969.759460,963.282043 973.746521,962.723816 
	C976.025513,962.404663 978.660217,964.626099 981.772522,965.981384 
	C977.614075,969.227722 976.692627,972.157471 980.889160,974.929260 
	C975.860962,978.852783 974.214294,977.524231 971.181763,967.939941 
	C969.696716,970.874634 968.211670,973.809265 966.197937,977.788757 
	C964.945862,975.677551 964.129456,974.301086 963.161377,972.668823 
	C962.859314,973.157166 962.484741,973.762756 961.661621,974.686218 
	C960.141479,975.011963 959.069885,975.019714 957.998230,975.027527 
	C957.998230,975.027527 957.502380,974.988281 957.083862,974.739502 
	C956.051392,973.987976 955.437439,973.485229 954.940552,972.599731 
	C956.165405,971.806519 957.297119,970.996948 958.376648,971.061462 
	C961.448059,971.245178 962.419739,969.915100 961.951294,967.032349 
	C962.012695,966.978516 962.130920,966.865662 962.130920,966.865601 
z"/>
<path fill="#D4D4D4" opacity="1.000000" stroke="none" 
	d="
M872.013000,976.017334 
	C864.755554,977.190979 860.680603,973.321045 861.601013,966.129272 
	C862.080505,962.382629 865.223022,961.688232 869.044312,964.510437 
	C869.800110,963.359558 870.554993,962.209961 871.655762,961.491333 
	C872.005432,966.620667 872.009216,971.319031 872.013000,976.017334 
z"/>
<path fill="#D6D6D6" opacity="1.000000" stroke="none" 
	d="
M950.227234,974.990601 
	C947.107178,977.661987 943.903809,977.780029 940.330017,975.730103 
	C939.461060,975.231750 937.917725,975.909363 936.093384,975.740906 
	C932.769348,975.105164 931.562439,973.710205 931.903503,970.841736 
	C932.093140,969.246338 931.766235,967.589417 931.672180,965.960266 
	C932.738586,967.805542 933.805054,969.650757 934.565125,970.965942 
	C936.842285,967.989563 939.741760,964.199707 942.827881,960.699097 
	C943.014465,960.988342 942.973145,961.042847 942.667725,961.320557 
	C942.243958,965.473267 942.009460,969.349243 942.043030,973.222900 
	C942.071533,976.520264 943.739258,976.706604 946.265259,974.978394 
	C946.437378,974.984619 946.780518,975.014771 947.155090,975.015442 
	C948.017822,974.943420 948.505920,974.870728 949.303345,974.839905 
	C949.817505,974.918030 950.022339,974.954285 950.227234,974.990601 
z"/>
<path fill="#D6D6D6" opacity="1.000000" stroke="none" 
	d="
M913.966248,976.083618 
	C913.636780,975.990295 913.371765,975.804871 913.085205,975.016052 
	C913.006531,974.314453 913.013733,974.124146 913.311462,973.711792 
	C916.033691,972.259888 918.465454,971.029968 921.171265,969.661438 
	C921.138367,969.289307 921.039246,968.167908 920.981323,967.008911 
	C921.022461,966.971375 921.100403,966.891785 921.100403,966.891785 
	C928.528320,961.756165 926.448853,969.539368 927.983154,972.709045 
	C928.979065,970.079651 929.751648,968.039917 930.826233,966.427795 
	C931.102234,968.325378 930.932068,969.809998 931.079651,971.262329 
	C931.403931,974.451172 929.785095,975.324097 926.994751,974.993530 
	C927.004333,975.002808 927.024780,975.018066 926.873047,974.647339 
	C926.321838,971.894470 925.922363,969.512329 925.522888,967.130127 
	C925.359192,967.145996 925.195496,967.161926 925.031799,967.177795 
	C925.031799,969.774658 925.031799,972.371460 925.012695,974.989380 
	C924.993652,975.010498 924.958313,975.054993 924.958313,975.054993 
	C924.130737,974.346130 923.303162,973.637329 922.475586,972.928467 
	C922.601318,973.352051 922.727051,973.775696 922.852783,974.199280 
	C920.394897,975.020142 917.937012,975.840942 915.159668,976.244263 
	C914.548889,975.912354 914.257568,975.997925 913.966248,976.083618 
z"/>
<path fill="#D4D4D4" opacity="1.000000" stroke="none" 
	d="
M880.119263,966.864624 
	C880.841553,966.930664 881.563782,966.996765 882.754517,967.258545 
	C883.414429,967.712524 883.662903,967.891602 883.836182,968.330017 
	C883.812134,970.817810 883.920471,972.967224 884.028748,975.116577 
	C883.142517,975.440308 882.179138,975.635010 881.383728,976.110474 
	C878.282166,977.964783 877.724792,975.890686 877.374939,973.561829 
	C877.160767,972.136841 877.095398,970.689453 876.963196,969.252197 
	C876.551453,969.291504 876.139709,969.330811 875.727966,969.370178 
	C875.064636,971.534668 874.401306,973.699158 873.357361,975.485229 
	C872.976746,972.539673 872.976746,969.972595 872.976746,967.018127 
	C875.462097,967.018127 877.241638,967.018127 879.010071,967.008057 
	C878.998962,966.997925 878.978699,966.977112 878.980469,967.419128 
	C878.982178,970.218872 878.982178,972.576599 878.982178,974.934326 
	C879.296448,974.927002 879.610657,974.919678 879.924927,974.912415 
	C879.924927,972.299744 879.924927,969.687134 879.974182,967.022583 
	C880.023438,966.970764 880.119263,966.864624 880.119263,966.864624 
z"/>
<path fill="#D4D4D4" opacity="1.000000" stroke="none" 
	d="
M896.985535,975.994019 
	C895.656433,975.261536 894.327332,974.529053 893.198792,973.907166 
	C891.999023,974.207153 890.394470,974.608398 888.071106,974.857056 
	C886.530762,973.839844 885.709167,972.975220 884.719482,971.933777 
	C887.764404,970.127625 892.912170,972.893921 891.994812,966.988037 
	C893.116882,967.042297 894.238953,967.096558 895.678040,967.071777 
	C895.995056,966.992737 896.054199,967.053650 896.045654,967.488159 
	C896.363525,970.624268 896.689880,973.325806 897.010010,976.017944 
	C897.003784,976.008545 896.985535,975.994019 896.985535,975.994019 
z"/>
<path fill="#CDCDCD" opacity="1.000000" stroke="none" 
	d="
M946.780518,975.014771 
	C946.780518,975.014771 946.437378,974.984619 945.846130,974.971436 
	C940.710999,973.235474 943.733643,969.993408 943.298279,967.104126 
	C945.160156,967.104126 946.594910,967.104126 948.200378,967.241333 
	C948.583130,966.886597 948.795166,966.394653 949.007263,965.902710 
	C949.193176,965.911133 949.379089,965.919556 949.850403,966.295898 
	C950.466675,967.779602 950.797485,968.895386 951.083130,970.344910 
	C951.043396,971.127625 951.048767,971.576538 950.783325,972.143311 
	C950.012085,972.853210 949.511536,973.445374 948.693542,974.044373 
	C947.844238,974.372437 947.312378,974.693604 946.780518,975.014771 
z"/>
<path fill="#FBFBFB" opacity="1.000000" stroke="none" 
	d="
M891.996826,966.996338 
	C892.912170,972.893921 887.764404,970.127625 884.719482,971.933777 
	C885.709167,972.975220 886.530762,973.839844 887.676636,974.871033 
	C887.181091,977.688232 885.816467,977.519653 884.088745,975.449341 
	C883.920471,972.967224 883.812134,970.817810 883.858276,968.078735 
	C884.010193,967.320801 884.007629,967.152588 884.005127,966.984375 
	C884.005127,966.984375 884.002502,967.003540 884.234253,966.914246 
	C884.647827,966.543945 884.829590,966.262878 885.011353,965.981873 
	C885.011353,965.981873 885.003174,966.003174 885.422974,966.015930 
	C887.567505,966.020569 889.292236,966.012451 891.017029,966.004272 
	C891.017029,966.004272 890.997131,966.003357 891.087769,966.231812 
	C891.457397,966.643127 891.736450,966.826111 892.015442,967.009094 
	C892.015442,967.009094 891.998779,967.004639 891.996826,966.996338 
z"/>
<path fill="#D4D4D4" opacity="1.000000" stroke="none" 
	d="
M908.086060,976.021912 
	C907.180420,974.004761 906.274780,971.987671 905.514526,970.294312 
	C904.916077,972.024963 904.237854,973.986450 903.237305,975.542480 
	C902.914978,972.570129 902.914978,970.003174 902.914978,967.000000 
	C905.114807,967.000000 906.557373,967.000000 907.991394,967.449219 
	C908.017212,970.606201 908.051636,973.314087 908.086060,976.021912 
z"/>
<path fill="#D4D4D4" opacity="1.000000" stroke="none" 
	d="
M902.224792,976.045837 
	C901.165771,974.357544 900.106689,972.669250 898.865417,970.690430 
	C898.440857,972.296936 898.009827,973.927795 897.282227,975.776306 
	C896.985535,975.994019 897.003784,976.008545 897.000793,975.564575 
	C897.005371,972.406433 897.013000,969.692261 897.011841,966.987305 
	C897.003174,966.996521 896.984314,967.015198 897.417236,967.018433 
	C901.143372,966.435974 902.386230,967.866211 902.091187,971.109558 
	C901.943054,972.737427 902.168396,974.399353 902.224792,976.045837 
z"/>
<path fill="#FBFBFB" opacity="1.000000" stroke="none" 
	d="
M951.128296,970.011169 
	C950.797485,968.895386 950.466675,967.779602 950.129089,966.312378 
	C951.422974,965.975281 952.723572,965.989624 954.856995,966.015625 
	C957.127869,966.063354 958.565918,966.099548 959.924438,966.477051 
	C956.939453,967.882629 954.033875,968.946899 951.128296,970.011169 
z"/>
<path fill="#D4D4D4" opacity="1.000000" stroke="none" 
	d="
M913.020996,973.933777 
	C913.013733,974.124146 913.006531,974.314453 912.985474,974.790955 
	C911.729370,975.518005 910.487000,975.958862 909.124756,975.753906 
	C909.001404,972.401428 908.997986,969.694763 908.994568,966.988098 
	C909.757568,967.290527 910.520630,967.592957 911.648376,967.949829 
	C912.013123,968.004272 912.123840,968.098694 912.097046,968.471436 
	C912.387085,970.540710 912.704041,972.237244 913.020996,973.933777 
z"/>
<path fill="#FBFBFB" opacity="1.000000" stroke="none" 
	d="
M949.010986,974.037476 
	C949.511536,973.445374 950.012085,972.853210 951.087402,972.273804 
	C952.716003,972.518555 953.769775,972.750549 954.823547,972.982544 
	C955.437439,973.485229 956.051392,973.987976 956.835083,974.738403 
	C955.025330,978.763794 952.919128,975.259827 950.549072,975.041687 
	C950.022339,974.954285 949.817505,974.918030 949.306885,974.650574 
	C949.001099,974.419373 949.010986,974.037476 949.010986,974.037476 
z"/>
<path fill="#FDFDFD" opacity="1.000000" stroke="none" 
	d="
M879.021179,967.018127 
	C877.241638,967.018127 875.462097,967.018127 872.976746,967.018127 
	C872.976746,969.972595 872.976746,972.539673 872.981445,975.562744 
	C872.986206,976.018860 873.004395,975.996399 872.752625,975.995361 
	C872.325195,975.990479 872.149475,975.986694 871.973694,975.982849 
	C871.973694,975.982849 871.995972,975.996277 872.004517,976.006836 
	C872.009216,971.319031 872.005432,966.620667 872.005371,961.455383 
	C872.009094,960.988403 871.998962,961.002258 872.249146,961.010254 
	C872.671326,961.015137 872.843201,961.011902 873.015137,961.008606 
	C873.015137,961.008606 873.000000,961.000610 872.988525,961.419434 
	C872.148682,966.435059 875.208862,966.187988 878.197998,966.029358 
	C878.197998,966.029358 878.438416,965.997131 878.668884,966.237305 
	C878.939941,966.657715 878.980591,966.837891 879.021179,967.018127 
z"/>
<path fill="#FCFCFC" opacity="1.000000" stroke="none" 
	d="
M902.364563,976.037170 
	C902.168396,974.399353 901.943054,972.737427 902.091187,971.109558 
	C902.386230,967.866211 901.143372,966.435974 897.429688,966.760742 
	C897.008728,966.327942 897.008240,966.156067 897.007812,965.984192 
	C897.007812,965.984192 897.001099,966.002808 897.451172,966.012024 
	C901.273621,966.016479 904.646057,966.011719 908.018494,966.007019 
	C908.018494,966.007019 907.998718,966.002808 907.991821,966.247437 
	C907.989990,966.661316 907.994995,966.830627 908.000000,967.000000 
	C906.557373,967.000000 905.114807,967.000000 902.914978,967.000000 
	C902.914978,970.003174 902.914978,972.570129 902.849426,975.591309 
	C902.783875,976.045471 902.504333,976.028503 902.364563,976.037170 
z"/>
<path fill="#FBFBFB" opacity="1.000000" stroke="none" 
	d="
M926.985107,974.984314 
	C929.785095,975.324097 931.403931,974.451172 931.079651,971.262329 
	C930.932068,969.809998 931.102234,968.325378 931.227783,966.408020 
	C931.327393,965.960632 931.503357,965.971497 931.587769,965.965881 
	C931.766235,967.589417 932.093140,969.246338 931.903503,970.841736 
	C931.562439,973.710205 932.769348,975.105164 935.754761,975.723633 
	C936.007263,976.011658 936.006470,975.992981 935.563354,975.990234 
	C932.407043,975.990173 929.693909,975.992920 926.980774,975.995667 
	C926.980774,975.995667 927.001587,975.996094 927.007629,975.747986 
	C927.004150,975.328064 926.994629,975.156189 926.985107,974.984314 
z"/>
<path fill="#D6D6D6" opacity="1.000000" stroke="none" 
	d="
M948.790894,965.636841 
	C948.795166,966.394653 948.583130,966.886597 947.965637,966.927368 
	C946.167114,966.166199 944.773987,965.856140 943.175293,965.500305 
	C943.103760,963.923096 943.038452,962.482971 942.973145,961.042847 
	C942.973145,961.042847 943.014465,960.988342 943.038086,960.961548 
	C944.899292,962.413513 946.736938,963.892273 948.790894,965.636841 
z"/>
<path fill="#D4D4D4" opacity="1.000000" stroke="none" 
	d="
M907.804932,965.702576 
	C904.646057,966.011719 901.273621,966.016479 897.441467,966.014099 
	C900.372498,963.263062 903.955261,963.865540 907.804932,965.702576 
z"/>
<path fill="#D4D4D4" opacity="1.000000" stroke="none" 
	d="
M878.028931,965.713135 
	C875.208862,966.187988 872.148682,966.435059 872.983826,961.412231 
	C874.613770,962.456543 876.236816,963.926758 878.028931,965.713135 
z"/>
<path fill="#D6D6D6" opacity="1.000000" stroke="none" 
	d="
M913.951782,965.949463 
	C915.625183,963.404785 917.582336,963.451233 919.879150,965.650818 
	C920.019775,965.985779 919.957458,966.053894 919.535400,966.049866 
	C917.422363,966.044373 915.731384,966.042847 914.017822,966.018799 
	C913.995117,965.996338 913.951782,965.949463 913.951782,965.949463 
z"/>
<path fill="#D5D5D5" opacity="1.000000" stroke="none" 
	d="
M960.003967,966.135742 
	C958.565918,966.099548 957.127869,966.063354 955.249573,966.024658 
	C956.520874,963.567200 958.505310,963.376343 960.881836,965.646973 
	C961.018311,965.987366 960.951172,966.061707 960.713257,966.066772 
	C960.475403,966.071777 960.003967,966.135742 960.003967,966.135742 
z"/>
<path fill="#D6D6D6" opacity="1.000000" stroke="none" 
	d="
M927.239258,976.303223 
	C929.693909,975.992920 932.407043,975.990173 935.572998,975.989807 
	C933.183167,976.198364 930.340454,976.404602 927.239258,976.303223 
z"/>
<path fill="#FCFCFC" opacity="1.000000" stroke="none" 
	d="
M908.997681,966.995178 
	C908.997986,969.694763 909.001404,972.401428 908.961670,975.556763 
	C908.918518,976.005432 908.500244,976.006836 908.293152,976.014404 
	C908.051636,973.314087 908.017212,970.606201 908.245117,967.456421 
	C908.676697,967.011597 908.845886,967.008850 909.015076,967.006165 
	C909.015076,967.006165 909.000793,967.002258 908.997681,966.995178 
z"/>
<path fill="#D4D4D4" opacity="1.000000" stroke="none" 
	d="
M890.858032,965.713318 
	C889.292236,966.012451 887.567505,966.020569 885.411621,966.017090 
	C886.886658,965.811096 888.792908,965.616760 890.858032,965.713318 
z"/>
<path fill="#FBFBFB" opacity="1.000000" stroke="none" 
	d="
M958.072021,975.388062 
	C959.069885,975.019714 960.141479,975.011963 961.615234,975.006104 
	C962.017395,975.007996 961.994507,974.997864 962.005127,975.310913 
	C962.048523,976.054626 962.081238,976.485413 962.114014,976.916138 
	C960.791260,976.527039 959.468567,976.137817 958.072021,975.388062 
z"/>
<path fill="#D5D5D5" opacity="1.000000" stroke="none" 
	d="
M962.309326,976.758057 
	C962.081238,976.485413 962.048523,976.054626 962.002563,975.299072 
	C962.161133,975.516235 962.332947,976.058105 962.309326,976.758057 
z"/>
<path fill="#D6D6D6" opacity="1.000000" stroke="none" 
	d="
M926.994751,974.993530 
	C926.994629,975.156189 927.004150,975.328064 927.009277,975.758057 
	C926.432434,975.866028 925.859924,975.715820 925.122864,975.310303 
	C924.958313,975.054993 924.993652,975.010498 925.344360,974.992798 
	C926.138306,974.989380 926.581543,975.003723 927.024780,975.018066 
	C927.024780,975.018066 927.004333,975.002808 926.994751,974.993530 
z"/>
<path fill="#D4D4D4" opacity="1.000000" stroke="none" 
	d="
M891.938599,966.758545 
	C891.736450,966.826111 891.457397,966.643127 891.084473,966.222412 
	C891.281006,966.159058 891.571350,966.333496 891.938599,966.758545 
z"/>
<path fill="#D4D4D4" opacity="1.000000" stroke="none" 
	d="
M879.010071,967.008057 
	C878.980591,966.837891 878.939941,966.657715 878.789185,966.221619 
	C879.049316,966.099548 879.419678,966.233276 879.954590,966.615845 
	C880.119263,966.864624 880.023438,966.970764 879.737793,967.000488 
	C879.452209,967.030151 878.978699,966.977112 878.978699,966.977112 
	C878.978699,966.977112 878.998962,966.997925 879.010071,967.008057 
z"/>
<path fill="#D4D4D4" opacity="1.000000" stroke="none" 
	d="
M872.056885,976.171326 
	C872.149475,975.986694 872.325195,975.990479 872.764648,975.987915 
	C872.732300,976.107666 872.436218,976.233765 872.056885,976.171326 
z"/>
<path fill="#D4D4D4" opacity="1.000000" stroke="none" 
	d="
M872.943909,960.799866 
	C872.843201,961.011902 872.671326,961.015137 872.241455,961.014038 
	C872.279968,960.870239 872.576355,960.730713 872.943909,960.799866 
z"/>
<path fill="#D4D4D4" opacity="1.000000" stroke="none" 
	d="
M914.204895,976.121582 
	C914.257568,975.997925 914.548889,975.912354 914.879395,976.037842 
	C914.918518,976.248901 914.443542,976.159546 914.204895,976.121582 
z"/>
<path fill="#D4D4D4" opacity="1.000000" stroke="none" 
	d="
M884.762451,966.062622 
	C884.829590,966.262878 884.647827,966.543945 884.225098,966.917297 
	C884.160645,966.720886 884.337097,966.432190 884.762451,966.062622 
z"/>
<path fill="#D4D4D4" opacity="1.000000" stroke="none" 
	d="
M911.959595,967.954956 
	C912.007690,967.574158 912.200806,967.309448 912.739624,967.051758 
	C912.993774,966.992065 913.029724,967.029846 912.941772,967.257202 
	C912.693176,967.787659 912.449890,967.992371 912.123840,968.098694 
	C912.123840,968.098694 912.013123,968.004272 911.959595,967.954956 
z"/>
<path fill="#D4D4D4" opacity="1.000000" stroke="none" 
	d="
M896.758423,966.046204 
	C897.008240,966.156067 897.008728,966.327942 896.996765,966.757507 
	C896.984314,967.015198 897.003174,966.996521 896.770508,967.010010 
	C896.537903,967.023560 896.054199,967.053650 896.054199,967.053650 
	C896.054199,967.053650 895.995056,966.992737 895.965149,966.960083 
	C896.126526,966.654358 896.317810,966.381287 896.758423,966.046204 
z"/>
<path fill="#D4D4D4" opacity="1.000000" stroke="none" 
	d="
M908.946167,966.750000 
	C908.845886,967.008850 908.676697,967.011597 908.253784,967.007202 
	C907.994995,966.830627 907.989990,966.661316 907.988464,966.237915 
	C908.287048,966.153870 908.582214,966.323914 908.946167,966.750000 
z"/>
<path fill="#D4D4D4" opacity="1.000000" stroke="none" 
	d="
M912.976440,966.972595 
	C913.132263,966.675476 913.305420,966.397827 913.715210,966.034851 
	C913.951782,965.949463 913.995117,965.996338 913.917969,966.244751 
	C913.636353,966.771545 913.365967,966.950439 913.029724,967.029846 
	C913.029724,967.029846 912.993774,966.992065 912.976440,966.972595 
z"/>
<path fill="#D6D6D6" opacity="1.000000" stroke="none" 
	d="
M920.052795,965.953491 
	C920.411316,966.010986 920.675415,966.190918 920.989258,966.676331 
	C921.100403,966.891785 921.022461,966.971375 920.763916,966.902588 
	C920.227417,966.640869 920.044739,966.380920 919.957458,966.053894 
	C919.957458,966.053894 920.019775,965.985779 920.052795,965.953491 
z"/>
<path fill="#D5D5D5" opacity="1.000000" stroke="none" 
	d="
M961.053711,965.952026 
	C961.412964,966.006287 961.677856,966.183777 962.007446,966.657410 
	C962.130920,966.865662 962.012695,966.978516 961.743774,966.914429 
	C961.218567,966.641785 961.044067,966.378906 960.951172,966.061707 
	C960.951172,966.061707 961.018311,965.987366 961.053711,965.952026 
z"/>
<path fill="#D4D4D4" opacity="1.000000" stroke="none" 
	d="
M883.754944,966.966125 
	C884.007629,967.152588 884.010193,967.320801 883.990601,967.740356 
	C883.662903,967.891602 883.414429,967.712524 883.117310,967.247437 
	C883.175964,967.009705 883.340332,966.978821 883.754944,966.966125 
z"/>
<path fill="#971011" opacity="1.000000" stroke="none" 
	d="
M160.834961,754.152283 
	C157.484039,749.944824 153.671478,746.022461 150.865585,741.478394 
	C141.005890,725.511230 130.679855,709.752380 122.045479,693.127747 
	C110.273529,670.461853 100.465973,646.829407 93.616592,622.130859 
	C89.592461,607.620056 85.530502,593.080933 82.496033,578.346375 
	C79.931221,565.892395 78.405602,553.178833 77.184189,540.506531 
	C75.975517,527.966614 74.988037,515.320496 75.226074,502.746033 
	C75.574287,484.351105 75.854179,465.799683 78.455261,447.643341 
	C81.449974,426.739349 86.186348,405.993835 91.581642,385.553070 
	C96.037170,368.672760 101.994400,352.119385 108.319778,335.822266 
	C114.240044,320.568909 121.030754,305.599060 128.344650,290.957153 
	C134.841949,277.950012 141.667770,264.923065 149.984756,253.051102 
	C163.086838,234.348785 175.860809,215.215622 192.393814,199.217453 
	C206.781570,185.295151 221.167404,171.292740 236.487961,158.438812 
	C247.550232,149.157562 259.758148,141.058823 272.163574,133.613052 
	C284.505096,126.205643 297.409882,119.517014 310.650085,113.881599 
	C327.534943,106.694908 344.717407,99.887390 362.317535,94.808113 
	C375.149689,91.104828 388.327393,86.940758 402.131073,88.091698 
	C402.485199,88.523674 402.839325,88.955658 403.193451,89.387634 
	C400.639557,91.790756 398.247833,94.400414 395.500641,96.557350 
	C387.964447,102.474403 380.133148,108.021355 372.691254,114.051208 
	C364.353271,120.807137 356.147522,127.747841 348.192566,134.948776 
	C340.451660,141.955948 333.056915,149.349152 325.594818,156.659302 
	C320.880798,161.277328 316.277466,166.010986 311.701599,170.767014 
	C294.086792,189.075256 278.761841,209.166473 264.709442,230.315887 
	C250.637863,251.494156 239.352615,274.028198 232.917603,298.566162 
	C228.482941,315.476349 225.290909,332.833832 223.142288,350.189331 
	C220.804260,369.074463 219.692612,388.172546 219.205460,407.207458 
	C218.772766,424.113678 220.640961,441.038361 224.771851,457.480865 
	C228.300110,471.524658 231.981262,485.665955 237.293045,499.092255 
	C244.379395,517.004028 255.592133,532.361755 270.951294,544.459717 
	C283.806732,554.585571 298.343536,560.557434 314.237091,564.156189 
	C333.999420,568.630859 353.531525,567.498474 372.848450,562.692932 
	C383.619629,560.013367 393.528961,554.750488 402.504517,548.019714 
	C413.770172,539.571533 422.747070,529.203918 429.673615,516.885376 
	C438.391052,501.381866 443.173950,484.801117 446.310852,467.342072 
	C448.828491,453.329529 449.737335,439.350800 448.822937,425.364441 
	C447.249542,401.297852 443.432007,377.589874 430.322906,356.562103 
	C420.148773,340.242157 408.087250,325.338562 395.480927,310.844574 
	C381.664337,294.959076 368.113556,278.842285 354.289124,262.963684 
	C350.278168,258.356812 345.799408,254.144943 341.396271,249.895874 
	C338.184082,246.796097 338.295074,244.148132 341.461151,241.013504 
	C355.738251,226.878281 369.941254,212.667328 384.065216,198.379150 
	C386.475677,195.940659 388.700623,195.458069 391.530182,197.338531 
	C401.092651,203.693542 410.639404,210.107193 417.200226,219.829193 
	C420.526947,224.758804 423.385925,230.002289 426.523499,235.062271 
	C427.770294,237.072968 429.198730,238.971008 430.544495,240.920319 
	C431.134338,240.755463 431.724213,240.590607 432.314056,240.425751 
	C431.820007,233.952454 431.555176,227.451828 430.787659,221.011124 
	C428.733002,203.768967 419.451233,189.829025 409.669159,176.215668 
	C407.463928,173.146744 407.550049,170.921082 410.148773,168.407562 
	C418.243744,160.578094 426.349426,152.758316 434.348389,144.831299 
	C454.627136,124.735031 474.844116,104.576508 495.099396,84.456543 
	C500.043884,79.545090 501.194519,79.457878 506.010529,84.605698 
	C518.582214,98.043495 531.039368,111.588577 543.493042,125.136078 
	C544.230835,125.938660 544.535278,127.139595 544.970032,128.626495 
	C544.898682,129.097839 544.658386,129.334656 544.354492,129.206604 
	C542.826416,127.959450 541.511963,126.923592 540.392090,125.708412 
	C528.557251,112.866707 516.753967,99.995918 504.940765,87.134300 
	C500.720337,82.539291 500.683868,82.531586 496.070251,87.131638 
	C483.844116,99.321884 471.676666,111.571434 459.392975,123.703308 
	C444.108917,138.798508 428.774231,153.843292 413.351685,168.796677 
	C410.846832,171.225342 410.679504,172.897339 412.650696,175.954376 
	C418.140930,184.469070 423.916473,192.957443 428.071045,202.138718 
	C434.274841,215.848633 434.476318,230.848755 434.727417,245.663147 
	C434.744690,246.680725 434.090759,247.709702 433.346619,249.938385 
	C431.341156,246.957199 429.811096,244.904480 428.511444,242.715027 
	C419.503876,227.540634 410.736206,212.253128 394.930878,202.692413 
	C387.444336,198.163803 387.592834,197.783279 381.326721,204.101501 
	C368.584167,216.949997 355.939301,229.895599 343.160309,242.707520 
	C340.982361,244.891098 341.774384,246.428925 343.445801,248.194260 
	C349.279327,254.355652 355.240723,260.403809 360.888885,266.731262 
	C372.065765,279.252411 383.346924,291.698212 394.058533,304.611816 
	C404.330414,316.995239 413.822357,330.022125 423.865356,342.599854 
	C434.205292,355.549500 441.148651,370.186035 445.237457,386.082275 
	C449.855377,404.035461 452.105621,422.370819 450.991241,440.945007 
	C450.355743,451.537109 449.641022,462.182556 447.945892,472.639221 
	C445.460022,487.973877 440.352417,502.584045 432.891785,516.263184 
	C421.712433,536.760559 405.856415,552.194702 384.089050,561.342712 
	C363.115051,570.157349 341.265839,570.771240 319.345032,567.602905 
	C284.685181,562.593445 258.830627,544.033752 241.615906,513.666016 
	C225.688828,485.569794 219.307465,454.663055 217.433746,422.920685 
	C215.169800,384.567566 218.412842,346.520874 227.364090,309.040863 
	C235.279404,275.898438 249.924652,245.783234 269.715820,218.360535 
	C282.028137,201.300583 295.640442,185.070496 309.744263,169.437775 
	C329.913452,147.082153 352.197296,126.838120 375.918304,108.240593 
	C383.436707,102.346115 391.087677,96.620758 398.678009,90.818008 
	C398.492920,90.445747 398.307831,90.073479 398.122742,89.701218 
	C396.090118,90.085495 394.068054,90.541046 392.023315,90.843262 
	C365.568146,94.753517 340.327881,102.948326 315.982452,113.653297 
	C290.524902,124.847275 266.578217,138.787613 244.235748,155.525787 
	C218.542267,174.774399 195.708694,196.954224 175.721268,221.928864 
	C155.519913,247.170868 138.645020,274.630646 124.714012,303.858795 
	C111.390472,331.812408 100.651047,360.695007 92.433105,390.569580 
	C84.513374,419.360016 79.841949,448.693359 78.132256,478.395081 
	C76.736603,502.640961 77.801109,526.918396 80.681381,551.125244 
	C84.055161,579.479614 90.641830,607.036438 99.729027,634.017639 
	C111.404396,668.683472 127.638817,701.175598 147.368790,731.945435 
	C152.017899,739.195923 156.666763,746.446533 161.195923,753.811279 
	C161.076096,753.925476 160.834961,754.152283 160.834961,754.152283 
z"/>
<path fill="#971011" opacity="1.000000" stroke="none" 
	d="
M545.018311,128.978912 
	C549.346741,133.020782 553.680115,137.063980 557.737915,141.367020 
	C565.933899,150.058395 573.929443,158.938690 582.107788,167.646957 
	C586.909607,172.759888 587.056030,174.161102 583.020874,179.949966 
	C573.896851,193.039612 566.767517,206.890381 565.803894,223.286804 
	C565.536255,227.841980 564.229187,232.336090 563.398926,236.858215 
	C563.813843,237.071442 564.228821,237.284683 564.643738,237.497925 
	C565.626160,236.573669 566.908875,235.819962 567.545227,234.699234 
	C575.268494,221.097000 588.450684,213.100571 599.752136,203.177658 
	C600.747009,202.304123 601.841003,201.544235 602.848877,200.684555 
	C607.092346,197.065079 609.054382,197.313385 612.873047,201.266708 
	C626.741089,215.623581 640.694092,229.898514 654.641235,244.178787 
	C659.927795,249.591614 659.285278,252.056183 653.033630,256.073273 
	C645.798645,260.722229 638.944702,266.005676 632.188293,271.346313 
	C625.429382,276.688965 618.678101,282.114899 612.498962,288.098572 
	C604.772339,295.580719 597.037048,303.199219 590.395386,311.618561 
	C582.559998,321.551178 574.932983,331.893341 569.008850,343.013245 
	C564.005554,352.404694 560.655273,362.946686 558.203979,373.363159 
	C554.725769,388.143524 551.720642,403.188080 550.423584,418.283875 
	C549.234558,432.123352 549.875610,446.238953 551.029236,460.123291 
	C551.954834,471.263550 554.078064,482.454224 557.052795,493.241150 
	C562.244934,512.068542 571.335938,528.590820 586.639893,541.694275 
	C601.649048,554.545288 619.047668,560.459290 638.029724,562.987305 
	C654.282166,565.151794 670.485352,564.708740 686.522339,561.018738 
	C702.480957,557.346802 717.145630,550.517029 729.364136,539.813354 
	C746.805481,524.534302 759.308167,505.554138 766.097473,483.218170 
	C770.366028,469.175354 774.994385,455.124847 777.686218,440.745483 
	C782.438171,415.361572 783.228333,389.520111 781.791687,363.789337 
	C780.629883,342.978546 778.503174,322.061554 771.436279,302.247589 
	C766.560730,288.577972 760.739624,275.199677 754.577820,262.048798 
	C749.327332,250.842789 743.525452,239.811478 736.979309,229.319443 
	C730.334595,218.669601 722.450562,208.795517 715.161194,198.544800 
	C703.362854,181.953247 689.300049,167.376358 674.761536,153.242798 
	C655.492432,134.510452 634.681152,117.653702 612.395264,102.625259 
	C610.135620,101.101425 607.903809,99.536270 605.659058,97.990295 
	C605.929565,97.205193 606.200134,96.420090 606.470642,95.634987 
	C611.562439,96.240158 616.793030,96.300880 621.718933,97.556892 
	C634.363525,100.781021 647.062195,103.987808 659.379761,108.242157 
	C670.324646,112.022385 680.920776,116.913208 691.433594,121.821823 
	C711.482910,131.183167 730.548462,142.269943 748.181885,155.711044 
	C750.093079,157.167816 751.903259,158.757126 753.811035,160.713745 
	C753.861877,161.142517 753.599731,161.414871 753.276184,161.298065 
	C750.485413,159.521057 748.002380,157.883667 745.553284,156.197144 
	C715.556946,135.540848 683.729248,118.449715 648.928955,107.365532 
	C636.998962,103.565742 624.773682,100.692871 612.341797,97.303391 
	C612.341797,98.893921 612.211243,99.406952 612.361389,99.509674 
	C614.659241,101.081810 617.110229,102.450821 619.300476,104.156181 
	C631.999390,114.043549 644.764648,123.851913 657.271057,133.978882 
	C679.881714,152.287689 699.421936,173.673737 717.285217,196.480835 
	C737.978943,222.901825 755.323303,251.455444 766.846313,283.159210 
	C771.596436,296.228363 776.098938,309.481384 779.312317,322.984406 
	C781.715149,333.081848 781.858765,343.715363 783.030579,354.107666 
	C785.955139,380.045227 784.591492,405.839844 781.196838,431.664459 
	C777.209412,461.998413 769.171204,490.823059 752.492126,516.835205 
	C744.208801,529.753601 733.819824,540.496582 720.975830,548.940674 
	C705.185425,559.321899 687.817200,564.453979 669.068359,566.041260 
	C645.401550,568.044739 622.577332,565.530151 601.206909,554.681946 
	C584.402649,546.151611 571.902649,533.000916 563.243774,516.373901 
	C551.285767,493.411835 546.957031,468.490662 547.421997,443.006775 
	C547.763245,424.302979 549.617371,405.500214 552.481812,387.002411 
	C555.754517,365.868164 562.485901,345.617798 574.792114,327.694977 
	C591.616760,303.191498 612.706604,282.844818 636.302917,264.983887 
	C642.859985,260.020569 649.595154,255.292419 657.756348,249.360474 
	C650.271790,242.377731 643.267822,236.257065 636.748352,229.657791 
	C628.340271,221.146790 620.279846,212.289703 612.155579,203.502197 
	C609.565613,200.700760 607.148376,199.756027 604.238281,202.984543 
	C603.474121,203.832352 602.416992,204.416702 601.491882,205.118774 
	C587.025940,216.097321 572.591187,227.085419 564.602295,244.211411 
	C563.844971,245.834946 562.149292,247.020737 560.889221,248.409760 
	C560.441223,248.200317 559.993164,247.990875 559.545105,247.781448 
	C561.263672,236.491226 562.796387,225.168762 564.748596,213.919098 
	C567.102478,200.355316 573.672485,188.618973 581.493835,177.534058 
	C583.129333,175.216080 583.851929,173.331375 581.628662,170.943100 
	C574.492249,163.277130 567.390381,155.575775 560.425964,147.753876 
	C555.052490,141.718842 549.905884,135.481857 544.658386,129.334656 
	C544.658386,129.334656 544.898682,129.097839 545.018311,128.978912 
z"/>
<path fill="#971011" opacity="1.000000" stroke="none" 
	d="
M753.992493,161.005920 
	C758.807190,164.161591 763.861084,167.039764 768.102844,170.827362 
	C778.849182,180.422974 789.655334,190.017548 799.645020,200.376724 
	C810.657593,211.796463 821.579956,223.471817 831.091492,236.125778 
	C842.012451,250.654541 851.790100,266.107880 861.219666,281.671387 
	C868.555908,293.779755 874.710449,306.614471 881.191406,319.228516 
	C895.586975,347.247192 906.711609,376.564758 913.826050,407.221130 
	C918.078552,425.545624 921.783081,444.139648 923.714111,462.821320 
	C925.724121,482.268738 926.363953,502.005157 925.666260,521.546082 
	C924.875610,543.689270 922.653992,565.868164 916.354187,587.332947 
	C910.988281,605.616028 905.739014,623.940247 899.920471,642.080200 
	C897.556641,649.449768 894.220947,656.587158 890.635559,663.469788 
	C881.169678,681.641174 872.108276,700.097046 861.390320,717.519653 
	C852.388123,732.152954 841.889648,745.993408 830.942261,759.268433 
	C818.702759,774.110413 805.825073,788.548279 792.073914,801.983643 
	C780.610779,813.183594 767.697449,822.954651 755.021729,832.839600 
	C745.893066,839.958435 736.440735,846.794678 726.520691,852.734863 
	C711.879395,861.502258 697.031677,870.068665 681.646240,877.409363 
	C666.036499,884.856995 649.739014,890.895874 633.612305,897.219055 
	C613.154663,905.240479 591.946472,910.671265 570.255676,914.044739 
	C555.555298,916.331177 540.809326,918.546936 526.000671,919.851990 
	C511.133636,921.162170 496.116882,922.361206 481.250275,921.702026 
	C460.767914,920.793884 440.224548,919.008972 419.968842,915.897339 
	C401.041351,912.989685 382.100494,909.010803 363.821289,903.376221 
	C346.450226,898.021484 329.678986,890.454895 313.112000,882.842468 
	C299.943512,876.791565 287.006256,869.941895 274.830109,862.104858 
	C260.802399,853.076050 247.283936,843.111145 234.359421,832.554749 
	C221.913101,822.388916 209.880630,811.545898 198.806839,799.914551 
	C185.820084,786.273865 174.056763,771.467590 161.802475,757.132874 
	C161.304565,756.550476 161.212387,755.621277 160.883087,754.502930 
	C160.834961,754.152283 161.076096,753.925476 161.494049,753.952026 
	C162.545837,754.511841 163.308990,754.947632 163.794785,755.592407 
	C181.368576,778.917725 201.208282,800.134338 222.898849,819.676392 
	C241.591339,836.517090 261.639465,851.577454 283.176147,864.482117 
	C313.791534,882.826721 346.385773,896.642151 380.990051,905.796692 
	C409.394623,913.311035 438.255188,917.664612 467.506714,918.920288 
	C491.435211,919.947449 515.362366,919.118286 539.252563,916.365112 
	C569.597412,912.867981 599.280457,906.510498 628.170288,896.857117 
	C670.031799,882.869385 709.071106,863.145569 744.951416,837.270630 
	C769.954773,819.239441 793.854614,799.941650 813.593933,776.118164 
	C827.461304,759.381531 841.382507,742.562439 853.676758,724.678345 
	C873.411072,695.971375 888.975769,664.968994 900.832886,632.077942 
	C912.635376,599.338440 920.617798,565.703674 922.640198,531.097107 
	C923.983887,508.104675 922.477905,484.872620 921.117004,461.814575 
	C919.573608,435.664307 913.722412,410.066864 905.351929,385.391968 
	C897.251465,361.512878 887.542725,338.067078 876.911743,315.187714 
	C864.225525,287.884918 848.126038,262.473785 829.681091,238.543320 
	C811.024536,214.338181 790.455017,192.089020 766.679443,172.839401 
	C762.183411,169.199295 757.952820,165.231476 753.599731,161.414871 
	C753.599731,161.414871 753.861877,161.142517 753.992493,161.005920 
z"/>
<path fill="#FEFEFE" opacity="1.000000" stroke="none" 
	d="
M960.713257,966.066772 
	C961.044067,966.378906 961.218567,966.641785 961.682373,966.968262 
	C962.419739,969.915100 961.448059,971.245178 958.376648,971.061462 
	C957.297119,970.996948 956.165405,971.806519 954.940552,972.599731 
	C953.769775,972.750549 952.716003,972.518555 951.358154,972.156006 
	C951.048767,971.576538 951.043396,971.127625 951.083191,970.344910 
	C954.033875,968.946899 956.939453,967.882629 959.924438,966.477051 
	C960.003967,966.135742 960.475403,966.071777 960.713257,966.066772 
z"/>
<path fill="#FCFCFC" opacity="1.000000" stroke="none" 
	d="
M942.667725,961.320557 
	C943.038452,962.482971 943.103760,963.923096 943.175293,965.500305 
	C944.773987,965.856140 946.167114,966.166199 947.794922,966.790161 
	C946.594910,967.104126 945.160156,967.104126 943.298279,967.104126 
	C943.733643,969.993408 940.710999,973.235474 945.674011,974.965149 
	C943.739258,976.706604 942.071533,976.520264 942.043030,973.222900 
	C942.009460,969.349243 942.243958,965.473267 942.667725,961.320557 
z"/>
<path fill="#FCFCFC" opacity="1.000000" stroke="none" 
	d="
M948.693481,974.044312 
	C949.010986,974.037476 949.001099,974.419373 948.997559,974.608704 
	C948.505920,974.870728 948.017822,974.943420 947.155090,975.015442 
	C947.312378,974.693604 947.844238,974.372437 948.693481,974.044312 
z"/>
<path fill="#FBFBFB" opacity="1.000000" stroke="none" 
	d="
M919.535400,966.049866 
	C920.044739,966.380920 920.227417,966.640869 920.722778,966.940186 
	C921.039246,968.167908 921.138367,969.289307 921.171265,969.661438 
	C918.465454,971.029968 916.033691,972.259888 913.311462,973.711792 
	C912.704041,972.237244 912.387085,970.540710 912.097046,968.471436 
	C912.449890,967.992371 912.693176,967.787659 912.941772,967.257202 
	C913.365967,966.950439 913.636353,966.771545 913.940674,966.267212 
	C915.731384,966.042847 917.422363,966.044373 919.535400,966.049866 
z"/>
<path fill="#FBFBFB" opacity="1.000000" stroke="none" 
	d="
M926.873047,974.647339 
	C926.581543,975.003723 926.138306,974.989380 925.363403,974.971680 
	C925.031799,972.371460 925.031799,969.774658 925.031799,967.177795 
	C925.195496,967.161926 925.359192,967.145996 925.522888,967.130127 
	C925.922363,969.512329 926.321838,971.894470 926.873047,974.647339 
z"/>
<path fill="#FDFDFD" opacity="1.000000" stroke="none" 
	d="
M878.980469,967.419128 
	C878.978699,966.977112 879.452209,967.030151 879.688599,967.052307 
	C879.924927,969.687134 879.924927,972.299744 879.924927,974.912415 
	C879.610657,974.919678 879.296448,974.927002 878.982178,974.934326 
	C878.982178,972.576599 878.982178,970.218872 878.980469,967.419128 
z"/>
<path fill="#FCFCFC" opacity="1.000000" stroke="none" 
	d="
M896.045654,967.488159 
	C896.054199,967.053650 896.537903,967.023560 896.779236,967.000854 
	C897.013000,969.692261 897.005371,972.406433 897.007019,975.573975 
	C896.689880,973.325806 896.363525,970.624268 896.045654,967.488159 
z"/>
<path fill="#010000" opacity="1.000000" stroke="none" 
	d="
M753.276184,161.298065 
	C757.952820,165.231476 762.183411,169.199295 766.679443,172.839401 
	C790.455017,192.089020 811.024536,214.338181 829.681091,238.543320 
	C848.126038,262.473785 864.225525,287.884918 876.911743,315.187714 
	C887.542725,338.067078 897.251465,361.512878 905.351929,385.391968 
	C913.722412,410.066864 919.573608,435.664307 921.117004,461.814575 
	C922.477905,484.872620 923.983887,508.104675 922.640198,531.097107 
	C920.617798,565.703674 912.635376,599.338440 900.832886,632.077942 
	C888.975769,664.968994 873.411072,695.971375 853.676758,724.678345 
	C841.382507,742.562439 827.461304,759.381531 813.593933,776.118164 
	C793.854614,799.941650 769.954773,819.239441 744.951416,837.270630 
	C709.071106,863.145569 670.031799,882.869385 628.170288,896.857117 
	C599.280457,906.510498 569.597412,912.867981 539.252563,916.365112 
	C515.362366,919.118286 491.435211,919.947449 467.506714,918.920288 
	C438.255188,917.664612 409.394623,913.311035 380.990051,905.796692 
	C346.385773,896.642151 313.791534,882.826721 283.176147,864.482117 
	C261.639465,851.577454 241.591339,836.517090 222.898849,819.676392 
	C201.208282,800.134338 181.368576,778.917725 163.794785,755.592407 
	C163.308990,754.947632 162.545837,754.511841 161.613876,753.837830 
	C156.666763,746.446533 152.017899,739.195923 147.368790,731.945435 
	C127.638817,701.175598 111.404396,668.683472 99.729027,634.017639 
	C90.641830,607.036438 84.055161,579.479614 80.681381,551.125244 
	C77.801109,526.918396 76.736603,502.640961 78.132256,478.395081 
	C79.841949,448.693359 84.513374,419.360016 92.433105,390.569580 
	C100.651047,360.695007 111.390472,331.812408 124.714012,303.858795 
	C138.645020,274.630646 155.519913,247.170868 175.721268,221.928864 
	C195.708694,196.954224 218.542267,174.774399 244.235748,155.525787 
	C266.578217,138.787613 290.524902,124.847275 315.982452,113.653297 
	C340.327881,102.948326 365.568146,94.753517 392.023315,90.843262 
	C394.068054,90.541046 396.090118,90.085495 398.122742,89.701218 
	C398.307831,90.073479 398.492920,90.445747 398.678009,90.818008 
	C391.087677,96.620758 383.436707,102.346115 375.918304,108.240593 
	C352.197296,126.838120 329.913452,147.082153 309.744263,169.437775 
	C295.640442,185.070496 282.028137,201.300583 269.715820,218.360535 
	C249.924652,245.783234 235.279404,275.898438 227.364090,309.040863 
	C218.412842,346.520874 215.169800,384.567566 217.433746,422.920685 
	C219.307465,454.663055 225.688828,485.569794 241.615906,513.666016 
	C258.830627,544.033752 284.685181,562.593445 319.345032,567.602905 
	C341.265839,570.771240 363.115051,570.157349 384.089050,561.342712 
	C405.856415,552.194702 421.712433,536.760559 432.891785,516.263184 
	C440.352417,502.584045 445.460022,487.973877 447.945892,472.639221 
	C449.641022,462.182556 450.355743,451.537109 450.991241,440.945007 
	C452.105621,422.370819 449.855377,404.035461 445.237457,386.082275 
	C441.148651,370.186035 434.205292,355.549500 423.865356,342.599854 
	C413.822357,330.022125 404.330414,316.995239 394.058533,304.611816 
	C383.346924,291.698212 372.065765,279.252411 360.888885,266.731262 
	C355.240723,260.403809 349.279327,254.355652 343.445801,248.194260 
	C341.774384,246.428925 340.982361,244.891098 343.160309,242.707520 
	C355.939301,229.895599 368.584167,216.949997 381.326721,204.101501 
	C387.592834,197.783279 387.444336,198.163803 394.930878,202.692413 
	C410.736206,212.253128 419.503876,227.540634 428.511444,242.715027 
	C429.811096,244.904480 431.341156,246.957199 433.346619,249.938385 
	C434.090759,247.709702 434.744690,246.680725 434.727417,245.663147 
	C434.476318,230.848755 434.274841,215.848633 428.071045,202.138718 
	C423.916473,192.957443 418.140930,184.469070 412.650696,175.954376 
	C410.679504,172.897339 410.846832,171.225342 413.351685,168.796677 
	C428.774231,153.843292 444.108917,138.798508 459.392975,123.703308 
	C471.676666,111.571434 483.844116,99.321884 496.070251,87.131638 
	C500.683868,82.531586 500.720337,82.539291 504.940765,87.134300 
	C516.753967,99.995918 528.557251,112.866707 540.392090,125.708412 
	C541.511963,126.923592 542.826416,127.959450 544.354492,129.206604 
	C549.905884,135.481857 555.052490,141.718842 560.425964,147.753876 
	C567.390381,155.575775 574.492249,163.277130 581.628662,170.943100 
	C583.851929,173.331375 583.129333,175.216080 581.493835,177.534058 
	C573.672485,188.618973 567.102478,200.355316 564.748596,213.919098 
	C562.796387,225.168762 561.263672,236.491226 559.545105,247.781448 
	C559.993164,247.990875 560.441223,248.200317 560.889221,248.409760 
	C562.149292,247.020737 563.844971,245.834946 564.602295,244.211411 
	C572.591187,227.085419 587.025940,216.097321 601.491882,205.118774 
	C602.416992,204.416702 603.474121,203.832352 604.238281,202.984543 
	C607.148376,199.756027 609.565613,200.700760 612.155579,203.502197 
	C620.279846,212.289703 628.340271,221.146790 636.748352,229.657791 
	C643.267822,236.257065 650.271790,242.377731 657.756348,249.360474 
	C649.595154,255.292419 642.859985,260.020569 636.302917,264.983887 
	C612.706604,282.844818 591.616760,303.191498 574.792114,327.694977 
	C562.485901,345.617798 555.754517,365.868164 552.481812,387.002411 
	C549.617371,405.500214 547.763245,424.302979 547.421997,443.006775 
	C546.957031,468.490662 551.285767,493.411835 563.243774,516.373901 
	C571.902649,533.000916 584.402649,546.151611 601.206909,554.681946 
	C622.577332,565.530151 645.401550,568.044739 669.068359,566.041260 
	C687.817200,564.453979 705.185425,559.321899 720.975830,548.940674 
	C733.819824,540.496582 744.208801,529.753601 752.492126,516.835205 
	C769.171204,490.823059 777.209412,461.998413 781.196838,431.664459 
	C784.591492,405.839844 785.955139,380.045227 783.030579,354.107666 
	C781.858765,343.715363 781.715149,333.081848 779.312317,322.984406 
	C776.098938,309.481384 771.596436,296.228363 766.846313,283.159210 
	C755.323303,251.455444 737.978943,222.901825 717.285217,196.480835 
	C699.421936,173.673737 679.881714,152.287689 657.271057,133.978882 
	C644.764648,123.851913 631.999390,114.043549 619.300476,104.156181 
	C617.110229,102.450821 614.659241,101.081810 612.361389,99.509674 
	C612.211243,99.406952 612.341797,98.893921 612.341797,97.303391 
	C624.773682,100.692871 636.998962,103.565742 648.928955,107.365532 
	C683.729248,118.449715 715.556946,135.540848 745.553284,156.197144 
	C748.002380,157.883667 750.485413,159.521057 753.276184,161.298065 
z"/>
</svg>